# xmcd CD database file generated by OrangeCD 6.5
#
# Track frame offsets:
#	182
#	17395
#	34192
#	79012
#	97185
#	117160
#	141940
#	160815
#	194275
#	206157
#	240625
#	259507
#	276480
#	310727
#
# Disc length: 4280 seconds
#
# Revision: 12
# Processed by: cddbd v1.5.2PL0 Copyright (c) Steve Scherf et al.
# Submitted via: OrangeCD 6.5
#
DISCID=bf10b60e
DTITLE=Ten Years After - The Essential Ten Years After Collection
DYEAR=1991
DGENRE=Rock
TTITLE0=Rock And Roll Music To The World
TTITLE1=I'd Love To Change The World
TTITLE2=I'm Going Home [Live]
TTITLE3=Choo Choo Mama
TTITLE4=Tomorrow I'll Be Out Of Town
TTITLE5=I Woke Up This Morning
TTITLE6=Me And My Baby
TTITLE7=Good Morning Little Schoolgirl [Live]
TTITLE8=Goin' Back To Birmingham
TTITLE9=50,000 Miles Beneath My Brain
TTITLE10=Sweet Little Sixteen
TTITLE11=I'm Coming On
TTITLE12=Love Like A Man
TTITLE13=Baby Won't You Let Me Rock 'n' Roll You
EXTD=
EXTT0=
EXTT1=
EXTT2=
EXTT3=
EXTT4=
EXTT5=
EXTT6=
EXTT7=
EXTT8=
EXTT9=
EXTT10=
EXTT11=
EXTT12=
EXTT13=
PLAYORDER=
